<?xml version="1.0" encoding="UTF-8" standalone="no"?>
<svg
   xmlns:dc="http://purl.org/dc/elements/1.1/"
   xmlns:cc="http://creativecommons.org/ns#"
   xmlns:rdf="http://www.w3.org/1999/02/22-rdf-syntax-ns#"
   xmlns:svg="http://www.w3.org/2000/svg"
   xmlns="http://www.w3.org/2000/svg"
   id="svg8"
   version="1.1"
   viewBox="0 0 158.75 158.75"
   height="600"
   width="600">
  <defs
     id="defs2" />
  <metadata
     id="metadata5">
    <rdf:RDF>
      <cc:Work
         rdf:about="">
        <dc:format>image/svg+xml</dc:format>
        <dc:type
           rdf:resource="http://purl.org/dc/dcmitype/StillImage" />
        <dc:title></dc:title>
      </cc:Work>
    </rdf:RDF>
  </metadata>
  <g
     id="layer2">
    <path
       id="path833"
       transform="scale(0.26458333)"
       d="M 300 140 A 250.00001 60 0 0 0 50 200 C 50 200 60.000004 500 300 500 C 540 500 550 200 550 200 A 250.00001 60 0 0 0 300 140 z "
       style="fill:#ffffff;fill-opacity:0.86464089;stroke:none;stroke-width:5;stroke-linecap:butt;stroke-linejoin:miter;stroke-miterlimit:4;stroke-dasharray:none;stroke-opacity:1" />
  </g>
  <g
     style="display:inline"
     transform="translate(0,-138.24998)"
     id="layer1">
    <g
       style="stroke:#000000;stroke-opacity:0.29005528"
       id="g827">
      <path
         style="fill:#ffcd4f;fill-opacity:0.82596681;stroke:#000000;stroke-width:0.26458332px;stroke-linecap:butt;stroke-linejoin:miter;stroke-opacity:0.29005528"
         d="m 18.520833,204.39581 c 0,0 7.9375,63.5 60.854166,63.5 52.916671,0 60.854161,-63.5 60.854161,-63.5"
         id="path823" />
      <ellipse
         style="fill:#fdd265;fill-opacity:1;fill-rule:evenodd;stroke:#000000;stroke-width:0.26928702;stroke-opacity:0.29005528"
         id="path821"
         cx="79.375"
         cy="204.92522"
         rx="60.854168"
         ry="13.226814" />
    </g>
    <g
       id="g831">
      <path
         style="fill:none;stroke:#000000;stroke-width:1.32291663;stroke-linecap:butt;stroke-linejoin:miter;stroke-miterlimit:4;stroke-dasharray:none;stroke-opacity:1"
         d="m 13.229166,191.16665 v 0 c 0,0 2.645834,79.375 66.145833,79.375 63.500001,0 66.145831,-79.375 66.145831,-79.375"
         id="path819" />
      <ellipse
         style="fill:none;fill-opacity:0.53038677;fill-rule:evenodd;stroke:#000000;stroke-width:1.32291663;stroke-miterlimit:4;stroke-dasharray:none;stroke-opacity:1"
         id="path817"
         cx="79.375"
         cy="191.16664"
         rx="66.145836"
         ry="15.875" />
    </g>
  </g>
</svg>
